<svg width="11" height="11" viewBox="0 0 11 11" fill="none" xmlns="http://www.w3.org/2000/svg">
<path d="M8.59139 8.60986C8.80398 8.39871 9.14476 8.39871 9.35734 8.60986L10.7624 9.74403H10.7868C11.0711 10.0313 11.0711 10.4972 10.7868 10.7845C10.5025 11.0718 10.0417 11.0718 9.7574 10.7845L8.59139 9.44816L8.54714 9.39823C8.46472 9.2939 8.4192 9.16383 8.4192 9.02901C8.4192 8.87171 8.48116 8.72089 8.59139 8.60986ZM4.7177 0C5.96891 0 7.16888 0.50239 8.05362 1.39665C8.93836 2.29091 9.4354 3.50379 9.4354 4.76846C9.4354 7.40201 7.32322 9.53692 4.7177 9.53692C2.11219 9.53692 0 7.40201 0 4.76846C0 2.13491 2.11219 0 4.7177 0Z" fill="#BD6060"/>
</svg>
