<svg width="21" height="21" viewBox="0 0 21 21" fill="none" xmlns="http://www.w3.org/2000/svg">
<path d="M16.4017 16.437C16.8076 16.0339 17.4582 16.0339 17.864 16.437L20.5464 18.6022H20.593C21.1357 19.1508 21.1357 20.0401 20.593 20.5886C20.0503 21.1371 19.1704 21.1371 18.6278 20.5886L16.4017 18.0374L16.3173 17.9421C16.1599 17.7429 16.073 17.4946 16.073 17.2372C16.073 16.9369 16.1913 16.649 16.4017 16.437ZM9.00652 0C11.3952 0 13.686 0.959108 15.3751 2.66633C17.0641 4.37355 18.013 6.68904 18.013 9.10342C18.013 14.1311 13.9807 18.2068 9.00652 18.2068C4.03236 18.2068 0 14.1311 0 9.10342C0 4.07574 4.03236 0 9.00652 0Z" fill="#A01111"/>
</svg>
