<svg width="22" height="23" viewBox="0 0 22 23" fill="none" xmlns="http://www.w3.org/2000/svg">
<path d="M7.62999 21.5893V18.0729C7.62999 17.1753 8.36299 16.4476 9.26719 16.4476H12.5725C13.0067 16.4476 13.4231 16.6189 13.7302 16.9237C14.0372 17.2285 14.2097 17.6419 14.2097 18.0729V21.5893C14.207 21.9625 14.3544 22.3213 14.6192 22.5862C14.8841 22.851 15.2444 23 15.6204 23H17.8754C18.9286 23.0027 19.9396 22.5893 20.6852 21.8509C21.4309 21.1126 21.85 20.11 21.85 19.0645V9.04688C21.85 8.20232 21.4729 7.40121 20.8203 6.85937L13.1491 0.777249C11.8147 -0.289154 9.90277 -0.254722 8.60819 0.859025L1.11206 6.85937C0.428651 7.38524 0.0201851 8.18873 0 9.04688V19.0543C0 21.2334 1.77949 23 3.9746 23H6.17813C6.95891 23 7.59344 22.3746 7.5991 21.5996L7.62999 21.5893Z" fill="#BCB3B3"/>
</svg>
