<svg width="8" height="15" viewBox="0 0 8 15" fill="none" xmlns="http://www.w3.org/2000/svg">
<g clip-path="url(#clip0_0_111)">
<path fill-rule="evenodd" clip-rule="evenodd" d="M1.8416 7.29802C1.01482 6.21627 0.455237 4.89056 0.548743 3.40508C0.818161 -0.875022 6.1633 0.0665451 7.20304 2.22677C8.24278 4.387 8.11923 9.86659 6.77546 10.2527C6.23956 10.4067 5.09795 10.0295 3.93605 9.24885L4.66535 15H0.35913L1.8416 7.29802Z" fill="#B28B67"/>
<path fill-rule="evenodd" clip-rule="evenodd" d="M3.18119 4.97341C3.04037 4.86553 2.87212 4.80001 2.69139 4.80001C2.19592 4.80001 1.79426 5.29249 1.79426 5.80001C1.79426 6.32798 2.01793 6.73621 2.33735 6.9094C2.16675 7.28119 1.99521 7.551 1.79426 7.60001C1.01881 7.51257 0 5.36411 0 3.6C0 1.6691 1.37835 0 3.94737 0C6.25642 0 7.13193 1.06124 7.17704 2C6.18757 2.30312 4.4586 2.41985 1.97369 2.4V2.6L4.1268 2.8L4.48565 4C3.91473 3.9525 3.50675 4.389 3.18119 4.97341Z" fill="#191847"/>
</g>
<defs>
<clipPath id="clip0_0_111">
<rect width="7.66667" height="14.5667" fill="white" transform="scale(1.02975)"/>
</clipPath>
</defs>
</svg>
