<svg width="23" height="23" viewBox="0 0 23 23" fill="none" xmlns="http://www.w3.org/2000/svg">
<path d="M7.81311 21.5893V18.0729C7.81311 17.1753 8.5637 16.4476 9.48961 16.4476H12.8742C13.3189 16.4476 13.7453 16.6189 14.0597 16.9237C14.3741 17.2285 14.5507 17.6419 14.5507 18.0729V21.5893C14.5479 21.9625 14.6989 22.3213 14.9701 22.5862C15.2413 22.851 15.6103 23 15.9953 23H18.3044C19.3829 23.0027 20.4181 22.5893 21.1817 21.8509C21.9453 21.1126 22.3744 20.11 22.3744 19.0645V9.04688C22.3744 8.20232 21.9882 7.40121 21.32 6.85937L13.4647 0.777249C12.0983 -0.289154 10.1404 -0.254722 8.81479 0.859025L1.13875 6.85937C0.438939 7.38524 0.0206696 8.18873 0 9.04688V19.0543C0 21.2334 1.8222 23 4.06999 23H6.32641C7.12592 23 7.77568 22.3746 7.78148 21.5996L7.81311 21.5893Z" fill="#A01111"/>
</svg>
