<svg width="22" height="21" viewBox="0 0 22 21" fill="none" xmlns="http://www.w3.org/2000/svg">
<path d="M16.7954 16.437C17.211 16.0339 17.8772 16.0339 18.2928 16.437L21.0395 18.6022H21.0872C21.6429 19.1508 21.6429 20.0401 21.0872 20.5886C20.5315 21.1371 19.6305 21.1371 19.0748 20.5886L16.7954 18.0374L16.7089 17.9421C16.5478 17.7429 16.4588 17.4946 16.4588 17.2372C16.4588 16.9369 16.5799 16.649 16.7954 16.437ZM9.22268 0C11.6687 0 14.0145 0.959108 15.7441 2.66633C17.4737 4.37355 18.4454 6.68904 18.4454 9.10342C18.4454 14.1311 14.3162 18.2068 9.22268 18.2068C4.12913 18.2068 0 14.1311 0 9.10342C0 4.07574 4.12913 0 9.22268 0Z" fill="#BCB3B3"/>
</svg>
